<svg xmlns="http://www.w3.org/2000/svg" xmlns:bx="https://boxy-svg.com" id="Layer_1" width="2300" height="500" version="1.1" viewBox="0 0 2300 500"><path bx:shape="ring 804.964 338.624 88.963 103.701 159.99 178.814 1@23975c2f" d="M644.974 338.624a159.99 178.814 0 1 0 319.98 0 159.99 178.814 0 1 0-319.98 0Zm71.027 0a88.963 103.701 0 0 1 177.926 0 88.963 103.701 0 0 1-177.926 0Z" style="stroke:#000;fill:#32651f;stroke-width:4px" transform="translate(-631.59 -39.976)"/><path d="m690.389 316.812 162.098-111.179M704.25 432.388l-16.141-109.37m171.223 154.641L707.864 438.13m-19.38-122.5 59.902-107.117" style="fill:#d8d8d8;stroke-width:6px;stroke:#36a524" transform="translate(-631.59 -39.976)"/><g transform="translate(-12.987 -61.043)"><circle cx="239.03" cy="496.451" r="14.862" style="fill:#33ab23;stroke:#105008;stroke-width:4px"/><circle cx="239.03" cy="496.451" r="3.207" style="stroke:#000;fill:#104d07;stroke-width:0"/></g><g transform="translate(-17.963 -333.901)"><circle cx="239.03" cy="496.451" r="14.862" style="fill:#33ab23;stroke:#105008;stroke-width:4px"/><circle cx="239.03" cy="496.451" r="3.207" style="stroke:#000;fill:#104d07;stroke-width:0"/></g><g transform="translate(-118.858 -329.373)"><circle cx="239.03" cy="496.451" r="14.862" style="fill:#33ab23;stroke:#105008;stroke-width:4px"/><circle cx="239.03" cy="496.451" r="3.207" style="stroke:#000;fill:#104d07;stroke-width:0"/></g><g transform="translate(-182.335 -218.768)"><circle cx="239.03" cy="496.451" r="14.862" style="fill:#33ab23;stroke:#105008;stroke-width:4px"/><circle cx="239.03" cy="496.451" r="3.207" style="stroke:#000;fill:#104d07;stroke-width:0"/></g><g transform="translate(-162.852 -102.733)"><circle cx="239.03" cy="496.451" r="14.862" style="fill:#33ab23;stroke:#105008;stroke-width:4px"/><circle cx="239.03" cy="496.451" r="3.207" style="stroke:#000;fill:#104d07;stroke-width:0"/></g><g transform="translate(-631.59 -22.034)"><rect width="97.934" height="345.951" x="977.003" y="147.833" rx="36.693" ry="36.693" style="stroke:#000;fill:#dfe1aa;stroke-width:4px"/><path d="m1026.357 448.517-.437-253.205" style="fill:#d8d8d8;stroke:#3f4c32;stroke-width:7px"/><ellipse cx="1025.548" cy="193.227" rx="17.756" ry="17.598" style="stroke:#000;fill:#36462c;stroke-width:0"/><ellipse cx="1026.393" cy="315.51" rx="17.756" ry="17.598" style="stroke:#7b8255;stroke-width:3px;fill:#dce1aa"/><g transform="translate(594.815 -24.527)"><ellipse cx="431.156" cy="472.917" rx="17.756" ry="17.598" style="stroke:#7b8255;stroke-width:3px;fill:#c9d2a4"/><circle cx="431.156" cy="472.917" r="11.747" style="stroke:#000;stroke-width:0;fill:#39492e"/></g><circle cx="1025.97" cy="88.053" r="40.119" style="stroke:#000;stroke-width:5px;fill:#dfe1aa"/><g transform="translate(594.814 -384.864)"><ellipse cx="431.156" cy="472.917" rx="17.756" ry="17.598" style="stroke:#7b8255;stroke-width:3px;fill:#c9d2a4"/><circle cx="431.156" cy="472.917" r="11.747" style="stroke:#000;stroke-width:0;fill:#39492e"/></g></g><g transform="translate(-631.59 -16.492)"><rect width="97.934" height="345.951" x="1101.481" y="145.062" rx="36.693" ry="36.693" style="stroke:#000;stroke-width:4px;fill:#f00607"/><path d="m1150.835 445.746-.437-253.205" style="fill:#d8d8d8;stroke-width:7px;stroke:#ded5a0"/><circle cx="1150.448" cy="85.282" r="40.119" style="stroke:#000;stroke-width:5px;fill:#f00607"/><g transform="translate(606.89 58.502)"><ellipse cx="543.558" cy="131.533" rx="17.756" ry="17.598" style="stroke-width:3px;stroke:#ea9570;fill:#963923"/><circle cx="543.558" cy="131.533" r="7.383" style="fill:#843a22;stroke:#ded5a0;stroke-width:9px"/></g><g transform="translate(606.89 314.27)"><ellipse cx="543.558" cy="131.533" rx="17.756" ry="17.598" style="stroke-width:3px;stroke:#ea9570;fill:#963923"/><circle cx="543.558" cy="131.533" r="7.383" style="fill:#843a22;stroke:#ded5a0;stroke-width:9px"/></g><g transform="translate(606.89 -46.251)"><ellipse cx="543.558" cy="131.533" rx="17.756" ry="17.598" style="stroke-width:3px;stroke:#ea9570;fill:#963923"/><circle cx="543.558" cy="131.533" r="7.383" style="fill:#843a22;stroke:#ded5a0;stroke-width:9px"/></g></g><path d="M708.329 36.559q0-5.1 1.71-9.21t4.74-6.99 7.2-4.44 9.09-1.56q4.98 0 9.18 1.56t7.26 4.44 4.77 6.99 1.71 9.21q0 4.98-1.71 9.09t-4.77 7.08-7.26 4.62-9.18 1.65q-4.92 0-9.09-1.65t-7.2-4.62-4.74-7.08-1.71-9.09m8.22 0q0 3.42 1.05 6.27t3 4.95 4.62 3.27 5.91 1.17 5.94-1.17 4.65-3.27 3-4.95 1.05-6.27q0-3.3-1.05-6.12t-2.97-4.92-4.62-3.3-6-1.2-5.97 1.2-4.59 3.3-2.97 4.92-1.05 6.12m44.515-24h7.2v45.36h-7.2Zm16.083 16.56h7.2v28.8h-7.2Zm-1.02-9.78q0-1.74 1.29-3.03t3.27-1.29 3.33 1.23 1.35 3.09-1.35 3.09-3.33 1.23-3.27-1.29-1.29-3.03m51.358 8.94q2.82 0 4.83.99t3.3 2.61 1.89 3.72.6 4.32v18h-7.2v-15.96q0-1.26-.18-2.64t-.78-2.49-1.65-1.83-2.79-.72q-1.68 0-2.88.72t-1.98 1.86-1.14 2.55-.36 2.79v15.72h-7.2v-17.4q0-2.7-1.29-4.47t-4.05-1.77q-1.62 0-2.82.69t-1.95 1.77-1.14 2.49-.39 2.85v15.84h-7.2v-28.8h6.84v4.62h.12q.48-1.08 1.29-2.04t1.92-1.74 2.55-1.23 3.18-.45q3.36 0 5.58 1.5t3.42 3.96q1.44-2.64 3.84-4.05t5.64-1.41m25.918.84v4.02h.18q.54-.84 1.41-1.71t2.13-1.56 2.85-1.14 3.57-.45q3.06 0 5.64 1.17t4.44 3.21 2.88 4.8 1.02 5.94-.99 5.97-2.82 4.86-4.44 3.3-5.91 1.23q-3.06 0-5.61-1.26t-3.93-3.42h-.12v18.24h-7.2v-43.2Zm16.8 14.28q0-1.68-.51-3.33t-1.53-2.97-2.58-2.13-3.66-.81q-1.98 0-3.54.84t-2.67 2.16-1.68 3-.57 3.36.57 3.33 1.68 2.97 2.67 2.13 3.54.81q2.1 0 3.66-.84t2.58-2.16 1.53-3 .51-3.36m14.405-14.28h7.2v28.8h-7.2Zm-1.02-9.78q0-1.74 1.29-3.03t3.27-1.29 3.33 1.23 1.35 3.09-1.35 3.09-3.33 1.23-3.27-1.29-1.29-3.03m34.857 34.92h-.18q-1.08 1.92-3.48 3.15t-5.46 1.23q-1.74 0-3.63-.45t-3.48-1.5-2.64-2.76-1.05-4.23q0-3.24 1.83-5.16t4.71-2.94 6.39-1.35 6.87-.33v-.72q0-2.7-1.95-3.99t-4.65-1.29q-2.28 0-4.38.96t-3.48 2.34l-3.72-4.38q2.46-2.28 5.67-3.42t6.51-1.14q3.84 0 6.33 1.08t3.93 2.82 2.01 3.9.57 4.32v17.52h-6.72Zm-.12-9.48h-1.62q-1.74 0-3.66.15t-3.54.66-2.7 1.44-1.08 2.55q0 1.02.45 1.71t1.17 1.11 1.62.6 1.8.18q3.72 0 5.64-1.98t1.92-5.4Zm44.52 13.14h-6.84v-4.32h-.12q-1.5 2.52-4.17 3.84t-5.73 1.32q-3.3 0-5.91-1.23t-4.44-3.3-2.82-4.86-.99-5.97 1.02-5.94 2.88-4.8 4.44-3.21 5.64-1.17q1.98 0 3.54.45t2.73 1.11 2.01 1.44 1.38 1.5h.18v-20.22h7.2Zm-23.7-14.52q0 1.68.51 3.36t1.53 3 2.58 2.16 3.66.84q1.98 0 3.54-.81t2.67-2.13 1.68-2.97.57-3.33-.57-3.36-1.68-3-2.67-2.16-3.54-.84q-2.1 0-3.66.81t-2.58 2.13-1.53 2.97-.51 3.33m32.583-14.28h7.2v28.8h-7.2Zm-1.02-9.78q0-1.74 1.29-3.03t3.27-1.29 3.33 1.23 1.35 3.09-1.35 3.09-3.33 1.23-3.27-1.29-1.29-3.03m32.338-3.9h7.56v42.48h-7.56Zm12.416 19.44v-5.76h5.04v-8.34h7.08v8.34h7.2v5.76h-7.2v13.38q0 1.92.69 3.18t3.09 1.26q.72 0 1.56-.15t1.5-.45l.24 5.64q-.96.36-2.28.57t-2.52.21q-2.88 0-4.68-.81t-2.85-2.22-1.44-3.24-.39-3.93v-13.44Zm42.425 19.38h-.18q-1.08 1.92-3.48 3.15t-5.46 1.23q-1.74 0-3.63-.45t-3.48-1.5-2.64-2.76-1.05-4.23q0-3.24 1.83-5.16t4.71-2.94 6.39-1.35 6.87-.33v-.72q0-2.7-1.95-3.99t-4.65-1.29q-2.28 0-4.38.96t-3.48 2.34l-3.72-4.38q2.46-2.28 5.67-3.42t6.51-1.14q3.84 0 6.33 1.08t3.93 2.82 2.01 3.9.57 4.32v17.52h-6.72Zm-.12-9.48h-1.62q-1.74 0-3.66.15t-3.54.66-2.7 1.44-1.08 2.55q0 1.02.45 1.71t1.17 1.11 1.62.6 1.8.18q3.72 0 5.64-1.98t1.92-5.4Zm15.359-32.22h7.2v45.36h-7.2Zm16.078 16.56h7.2v28.8h-7.2Zm-1.02-9.78q0-1.74 1.29-3.03t3.27-1.29 3.33 1.23 1.35 3.09-1.35 3.09-3.33 1.23-3.27-1.29-1.29-3.03m34.864 34.92h-.18q-1.08 1.92-3.48 3.15t-5.46 1.23q-1.74 0-3.63-.45t-3.48-1.5-2.64-2.76-1.05-4.23q0-3.24 1.83-5.16t4.71-2.94 6.39-1.35 6.87-.33v-.72q0-2.7-1.95-3.99t-4.65-1.29q-2.28 0-4.38.96t-3.48 2.34l-3.72-4.38q2.46-2.28 5.67-3.42t6.51-1.14q3.84 0 6.33 1.08t3.93 2.82 2.01 3.9.57 4.32v17.52h-6.72Zm-.12-9.48h-1.62q-1.74 0-3.66.15t-3.54.66-2.7 1.44-1.08 2.55q0 1.02.45 1.71t1.17 1.11 1.62.6 1.8.18q3.72 0 5.64-1.98t1.92-5.4Zm15.239-15.66h6.84v4.62h.12q.96-2.16 3.33-3.81t5.61-1.65q2.82 0 4.83.99t3.3 2.61 1.89 3.72.6 4.32v18h-7.2v-15.96q0-1.26-.18-2.64t-.78-2.49-1.65-1.83-2.79-.72-3 .69-2.07 1.77-1.23 2.49-.42 2.85v15.84h-7.2Zm55.196 11.52q0-1.38-.39-2.64t-1.23-2.22-2.13-1.53-3.03-.57q-3.24 0-5.49 1.95t-2.49 5.01Zm7.2 3.24v.96q0 .48-.06.96h-21.9q.12 1.56.81 2.85t1.83 2.22 2.58 1.47 3 .54q2.7 0 4.56-.99t3.06-2.73l4.8 3.84q-4.26 5.76-12.36 5.76-3.36 0-6.18-1.05t-4.89-2.97-3.24-4.71-1.17-6.33q0-3.48 1.17-6.33t3.21-4.86 4.83-3.12 6.03-1.11q3 0 5.55.99t4.41 2.94 2.91 4.86 1.05 6.81m-461.274 80.04h-6.84v-4.32h-.12q-1.5 2.52-4.17 3.84t-5.73 1.32q-3.3 0-5.91-1.23t-4.44-3.3-2.82-4.86-.99-5.97 1.02-5.94 2.88-4.8 4.44-3.21 5.64-1.17q1.98 0 3.54.45t2.73 1.11 2.01 1.44 1.38 1.5h.18v-20.22h7.2Zm-23.7-14.52q0 1.68.51 3.36t1.53 3 2.58 2.16 3.66.84q1.98 0 3.54-.81t2.67-2.13 1.68-2.97.57-3.33-.57-3.36-1.68-3-2.67-2.16-3.54-.84q-2.1 0-3.66.81t-2.58 2.13-1.53 2.97-.51 3.33m32.576-14.28h7.2v28.8h-7.2Zm-1.02-9.78q0-1.74 1.29-3.03t3.27-1.29 3.33 1.23 1.35 3.09-1.35 3.09-3.33 1.23-3.27-1.29-1.29-3.03m32.338-3.9h7.56v42.48h-7.56Zm16.563 13.68h6.84v4.62h.12q.96-2.16 3.33-3.81t5.61-1.65q2.82 0 4.83.99t3.3 2.61 1.89 3.72.6 4.32v18h-7.2v-15.96q0-1.26-.18-2.64t-.78-2.49-1.65-1.83-2.79-.72-3 .69-2.07 1.77-1.23 2.49-.42 2.85v15.84h-7.2Zm36.061 5.76h-5.46v-5.76h5.46v-4.26q0-2.58.57-4.95t1.92-4.17 3.57-2.85 5.58-1.05q1.2 0 2.01.09t1.65.33l-.48 6.12q-.6-.18-1.29-.3t-1.47-.12q-1.56 0-2.52.6t-1.47 1.56-.69 2.1-.18 2.22v4.68h6.66v5.76h-6.66v23.04h-7.2Zm16.618 8.52q0-3.42 1.23-6.21t3.33-4.77 4.98-3.06 6.12-1.08 6.12 1.08 4.98 3.06 3.33 4.77 1.23 6.21-1.23 6.24-3.33 4.83-4.98 3.15-6.12 1.14-6.12-1.14-4.98-3.15-3.33-4.83-1.23-6.24m7.32 0q0 1.68.51 3.36t1.53 3 2.58 2.16 3.72.84 3.72-.84 2.58-2.16 1.53-3 .51-3.36-.51-3.33-1.53-2.97-2.58-2.13-3.72-.81-3.72.81-2.58 2.13-1.53 2.97-.51 3.33m30.958-14.28h6.9v4.8h.12q1.2-2.52 3.36-4.08t5.04-1.56q.42 0 .9.03t.84.15v6.6q-.72-.18-1.23-.24t-.99-.06q-2.46 0-3.96.9t-2.34 2.16-1.14 2.58-.3 2.1v15.42h-7.2Zm56.223-.84q2.82 0 4.83.99t3.3 2.61 1.89 3.72.6 4.32v18h-7.2v-15.96q0-1.26-.18-2.64t-.78-2.49-1.65-1.83-2.79-.72q-1.68 0-2.88.72t-1.98 1.86-1.14 2.55-.36 2.79v15.72h-7.2v-17.4q0-2.7-1.29-4.47t-4.05-1.77q-1.62 0-2.82.69t-1.95 1.77-1.14 2.49-.39 2.85v15.84h-7.2v-28.8h6.84v4.62h.12q.48-1.08 1.29-2.04t1.92-1.74 2.55-1.23 3.18-.45q3.36 0 5.58 1.5t3.42 3.96q1.44-2.64 3.84-4.05t5.64-1.41m36.898 25.98h-.18q-1.08 1.92-3.48 3.15t-5.46 1.23q-1.74 0-3.63-.45t-3.48-1.5-2.64-2.76-1.05-4.23q0-3.24 1.83-5.16t4.71-2.94 6.39-1.35 6.87-.33v-.72q0-2.7-1.95-3.99t-4.65-1.29q-2.28 0-4.38.96t-3.48 2.34l-3.72-4.38q2.46-2.28 5.67-3.42t6.51-1.14q3.84 0 6.33 1.08t3.93 2.82 2.01 3.9.57 4.32v17.52h-6.72Zm-.12-9.48h-1.62q-1.74 0-3.66.15t-3.54.66-2.7 1.44-1.08 2.55q0 1.02.45 1.71t1.17 1.11 1.62.6 1.8.18q3.72 0 5.64-1.98t1.92-5.4Zm10.5-9.9v-5.76h5.04v-8.34h7.08v8.34h7.2v5.76h-7.2v13.38q0 1.92.69 3.18t3.09 1.26q.72 0 1.56-.15t1.5-.45l.24 5.64q-.96.36-2.28.57t-2.52.21q-2.88 0-4.68-.81t-2.85-2.22-1.44-3.24-.39-3.93v-13.44Zm24.658-5.76h7.2v28.8h-7.2Zm-1.02-9.78q0-1.74 1.29-3.03t3.27-1.29 3.33 1.23 1.35 3.09-1.35 3.09-3.33 1.23-3.27-1.29-1.29-3.03m36.664 17.76q-.84-1.2-2.52-2.01t-3.42-.81q-1.98 0-3.48.81t-2.49 2.13-1.47 2.97-.48 3.33.51 3.33 1.53 2.97 2.55 2.13 3.57.81q1.68 0 3.36-.66t2.7-1.92l4.5 4.56q-1.8 1.92-4.59 2.97t-6.03 1.05q-3.18 0-6.03-1.02t-4.98-3-3.36-4.8-1.23-6.42q0-3.48 1.23-6.3t3.33-4.8 4.89-3.06 5.97-1.08 6.15 1.2 4.71 3.3Zm27.479 17.16h-.18q-1.08 1.92-3.48 3.15t-5.46 1.23q-1.74 0-3.63-.45t-3.48-1.5-2.64-2.76-1.05-4.23q0-3.24 1.83-5.16t4.71-2.94 6.39-1.35 6.87-.33v-.72q0-2.7-1.95-3.99t-4.65-1.29q-2.28 0-4.38.96t-3.48 2.34l-3.72-4.38q2.46-2.28 5.67-3.42t6.51-1.14q3.84 0 6.33 1.08t3.93 2.82 2.01 3.9.57 4.32v17.52h-6.72Zm-.12-9.48h-1.62q-1.74 0-3.66.15t-3.54.66-2.7 1.44-1.08 2.55q0 1.02.45 1.71t1.17 1.11 1.62.6 1.8.18q3.72 0 5.64-1.98t1.92-5.4Z" style="fill:#333" transform="translate(-1588.94 51.133)scale(3.18135)"/></svg>